<svg xmlns="http://www.w3.org/2000/svg" viewBox="0 0 1600 900" role="img" aria-labelledby="title desc">
  <title id="title">Diwali gifting concept</title>
  <desc id="desc">Original illustration of a ribboned festive gift box, blank greeting card and glowing diyas against a plum and saffron backdrop.</desc>
  <defs>
    <linearGradient id="night" x2="1" y2="1"><stop stop-color="#171226"/><stop offset=".56" stop-color="#321438"/><stop offset="1" stop-color="#6c2634"/></linearGradient>
    <linearGradient id="box" x2=".9" y2="1"><stop stop-color="#ed8e31"/><stop offset="1" stop-color="#a94532"/></linearGradient>
    <linearGradient id="lid" x2="1" y2="1"><stop stop-color="#f5bd5b"/><stop offset="1" stop-color="#d97735"/></linearGradient>
    <linearGradient id="gold" x2="0" y2="1"><stop stop-color="#fff0a8"/><stop offset="1" stop-color="#e6a83b"/></linearGradient>
    <radialGradient id="glow"><stop stop-color="#ffdb7b" stop-opacity=".62"/><stop offset="1" stop-color="#ffbf50" stop-opacity="0"/></radialGradient>
    <pattern id="motif" width="48" height="48" patternUnits="userSpaceOnUse"><path d="M24 3c4 12 9 17 21 21-12 4-17 9-21 21C20 33 15 28 3 24 15 20 20 15 24 3Z" fill="none" stroke="#ffd77d" stroke-opacity=".28" stroke-width="1.4"/><circle cx="24" cy="24" r="3" fill="#ffe7a3" fill-opacity=".5"/></pattern>
    <filter id="shadow" x="-.3" y="-.3" width="1.7" height="1.8"><feGaussianBlur stdDeviation="22"/></filter>
  </defs>
  <path fill="url(#night)" d="M0 0h1600v900H0z"/>
  <circle cx="1250" cy="412" r="430" fill="#cf6036" opacity=".12"/>
  <path d="M812 900V435a338 338 0 0 1 676 0v465" fill="#54213f" opacity=".52"/>
  <path d="M872 900V454a278 278 0 0 1 556 0v446" fill="none" stroke="#d89a52" stroke-opacity=".45" stroke-width="2"/>
  <path d="M937 900V480a213 213 0 0 1 426 0v420" fill="#1b1630" opacity=".55"/>
  <g fill="#ffe6a2" opacity=".86"><circle cx="1088" cy="184" r="3"/><circle cx="1450" cy="236" r="2.5"/><circle cx="968" cy="318" r="2"/><circle cx="1369" cy="144" r="2"/><circle cx="1510" cy="392" r="2.5"/><circle cx="1025" cy="226" r="1.8"/></g>
  <g fill="#ffbf55" opacity=".42"><circle cx="1190" cy="227" r="38"/><circle cx="1420" cy="317" r="28"/><circle cx="1006" cy="401" r="24"/></g>
  <g stroke="#b56b40" stroke-width="2" opacity=".7"><path d="M1080 0v87m0 0-22 28m22-28 22 28"/><path d="M1440 0v120m0 0-25 32m25-32 25 32"/></g>
  <g fill="#ffd68a"><path d="M1049 115a31 31 0 0 1 62 0"/><path d="M1408 153a32 32 0 0 1 64 0"/></g>
  <ellipse cx="1170" cy="759" rx="360" ry="54" fill="#080911" opacity=".48" filter="url(#shadow)"/>
  <g transform="translate(900 346) rotate(-3 220 220)">
    <path d="M10 212 251 94l304 132-260 137Z" fill="#ffce76" opacity=".38"/>
    <path d="m49 220 202-98 263 115-219 107Z" fill="url(#lid)" stroke="#ffd77f" stroke-width="3"/>
    <path d="m295 344 219-107v289L295 640Z" fill="#793149"/>
    <path d="m32 344 263-116v412L32 505Z" fill="url(#box)"/>
    <path d="m32 344 263 122v174L32 505Z" fill="url(#motif)" opacity=".85"/>
    <path d="m295 466 219-108v104L295 570Z" fill="#d46a40" opacity=".66"/>
    <path d="m280 126 48-24 72 36-47 25Z" fill="#ffe0a1"/>
    <path d="m318 162 77-39-6 75-77 40Z" fill="#f7d79a" stroke="#bd753d" stroke-width="3"/>
    <path d="M327 175c17 5 30 4 47-5" fill="none" stroke="#8f3a42" stroke-width="4" stroke-linecap="round"/>
    <path d="M250 121 275 33q24-24 47 0l26 100-39-17-27 32Z" fill="#8c2d4d" stroke="#ffd27b" stroke-width="3"/>
    <path d="M286 51c19 20 36 38 61 60" fill="none" stroke="#f6c968" stroke-width="10"/>
    <path d="M311 67c-22 5-37 18-45 38 22-4 38-16 45-38Zm14 14c22 5 37 18 45 38-22-4-38-16-45-38Z" fill="#e6ad56" stroke="#ffe09b" stroke-width="2"/>
    <circle cx="313" cy="83" r="12" fill="#f7d58b"/>
  </g>
  <g transform="translate(876 711)"><ellipse cx="66" cy="31" rx="73" ry="30" fill="url(#glow)"/><path d="M5 38q61 64 122 0" fill="#b85a31" stroke="#f1ba5e" stroke-width="3"/><path d="M13 36q53 22 106 0l-12 20H25Z" fill="#662b38"/><path d="M67 40c-28-23-5-44 1-58 8 17 29 34-1 58Z" fill="#ffd77d"/><path d="M67 35c-14-13-3-24 1-32 5 10 15 20-1 32Z" fill="#fff2be"/></g>
  <g transform="translate(1390 758) scale(.8)"><ellipse cx="66" cy="31" rx="73" ry="30" fill="url(#glow)"/><path d="M5 38q61 64 122 0" fill="#bd6034" stroke="#f1ba5e" stroke-width="3"/><path d="M13 36q53 22 106 0l-12 20H25Z" fill="#652c3c"/><path d="M67 40c-28-23-5-44 1-58 8 17 29 34-1 58Z" fill="#ffd77d"/><path d="M67 35c-14-13-3-24 1-32 5 10 15 20-1 32Z" fill="#fff2be"/></g>
  <path d="M0 840q360-55 720 0t880 0v60H0Z" fill="#120f20" opacity=".6"/>
</svg>
